<svg width="22" height="21" viewBox="0 0 22 21" fill="none" xmlns="http://www.w3.org/2000/svg">
<path d="M12.2601 19.1692L12.2865 19.1521C13.5147 18.3561 16.3214 16.0932 18.4292 13.2532C20.5713 10.3668 21.7489 7.22986 20.4657 4.47096L20.4655 4.47054C19.8216 3.08435 19.0733 2.32112 18.3544 1.91101C17.636 1.50119 16.8549 1.39137 16.0519 1.4741C14.4222 1.642 12.8511 2.58691 12.0405 3.1426C11.7462 3.38544 11.3758 3.51912 10.9924 3.51912C10.609 3.51912 10.2385 3.38536 9.94408 3.1424C9.1237 2.57874 7.60968 1.64003 6.0123 1.47281C5.22758 1.39065 4.4506 1.49818 3.71766 1.91196C2.98161 2.32749 2.20437 3.10033 1.50708 4.496L12.2601 19.1692ZM12.2601 19.1692L12.2349 19.1879M12.2601 19.1692L12.2349 19.1879M12.2349 19.1879C11.9776 19.3787 11.6602 19.4702 11.3409 19.4456C11.0216 19.4211 10.7218 19.2822 10.4967 19.0544L10.4536 19.0107M12.2349 19.1879L10.4536 19.0107M10.4536 19.0107L10.4055 18.9727M10.4536 19.0107L10.4055 18.9727M10.4055 18.9727C10.3208 18.9058 10.2265 18.8317 10.1235 18.7509M10.4055 18.9727L10.1235 18.7509M10.1235 18.7509C8.80766 17.7177 6.07498 15.5722 3.92112 12.9661M10.1235 18.7509L3.92112 12.9661M3.92112 12.9661C1.53546 10.0795 0.219822 7.07399 1.507 4.49616L3.92112 12.9661Z" fill="#FF0000" stroke="#FF0000" stroke-width="2"/>
</svg>
